#!OML:ASF X:\für Bonn\!DataBase\2005_08_10_Bjorn_Final\c3d\bjorn.ASF
:FULLY-SPECIFIED
:DEGREES
700
root -0.150541 1.62074 10.3082 -2432.01 -3.22226 182.972
lowerback 0.125835 1.26479 -4.99867
upperback 3.42312 1.59509 -4.1774
thorax 3.44002 0.578216 -1.47756
lowerneck -18.4618 -4.80215 -0.661089
upperneck 11.1015 -6.76316 3.65739
head 6.53761 -2.88136 0.559384
rclavicle -1.43125e-014 -2.77305e-014
rhumerus -428.144 51.9143 253.515
rradius 111.396
rwrist -33.8279
rhand 8.02921 8.85243
rfingers 7.12502
rthumb 33.2548 -18.0937
lclavicle -1.43125e-014 -2.77305e-014
lhumerus -71.5845 -66.6783 112.844
lradius 109.994
lwrist 34.7964
lhand -2.78938 -12.7803
lfingers 7.12502
lthumb 22.9161 735.878
rfemur -189.544 -165.493 187.812
rtibia 28.7465
rfoot 12.8684 7.75549
rtoes -9.03761
lfemur 177.434 176.739 161.481
ltibia 20.7301
lfoot 8.54399 9.56649
ltoes -10.3641
701
root -0.150176 1.6195 10.3075 -2431.96 -3.25318 183.042
lowerback 0.0884389 1.23803 -5.03688
upperback 3.42329 1.56421 -4.18378
thorax 3.46104 0.561903 -1.46316
lowerneck -18.5395 -4.80959 -0.658646
upperneck 11.1268 -6.77349 3.64582
head 6.55817 -2.8855 0.55224
rclavicle 2.70347e-014 -3.18055e-015
rhumerus -428.136 51.938 253.521
rradius 111.437
rwrist -33.7651
rhand 7.94393 8.80709
rfingers 7.12502
rthumb 33.1737 -18.1563
lclavicle 2.70347e-014 -3.18055e-015
lhumerus -71.407 -66.6742 112.674
lradius 109.978
lwrist 34.8174
lhand -2.68218 -12.7906
lfingers 7.12502
lthumb 23.019 735.855
rfemur -189.367 -165.332 187.709
rtibia 28.699
rfoot 12.8794 7.77686
rtoes -8.44475
lfemur 177.334 176.668 161.458
ltibia 20.7872
lfoot 8.58463 9.47688
ltoes -9.74034
702
root -0.149337 1.61896 10.3066 -2431.91 -3.28444 183.096
lowerback 0.034902 1.20883 -5.09116
upperback 3.42181 1.53237 -4.17516
thorax 3.48872 0.544801 -1.42405
lowerneck -18.6022 -4.81289 -0.698792
upperneck 11.1683 -6.77205 3.65511
head 6.58355 -2.88431 0.559856
rclavicle -2.8625e-014 5.87409e-014
rhumerus -428.146 51.9771 253.537
rradius 111.468
rwrist -33.6857
rhand 7.91225 8.79892
rfingers 7.12502
rthumb 33.1436 -18.1709
lclavicle -2.8625e-014 5.87409e-014
lhumerus -71.2079 -66.6578 112.517
lradius 109.949
lwrist 34.877
lhand -2.60389 -12.7924
lfingers 7.12502
lthumb 23.0941 735.844
rfemur -189.188 -165.248 187.61
rtibia 28.6554
rfoot 12.8688 7.72251
rtoes -7.52959
lfemur 177.232 176.631 161.432
ltibia 20.8499
lfoot 8.57403 9.43466
ltoes -9.01247
703
root -0.14894 1.61718 10.3038 -2431.88 -3.33045 183.168
lowerback 0.0224981 1.18013 -5.16352
upperback 3.40994 1.49714 -4.16864
thorax 3.48205 0.526022 -1.37783
lowerneck -18.6371 -4.82432 -0.72213
upperneck 11.1976 -6.78149 3.6383
head 6.59907 -2.89068 0.555967
rclavicle -1.98785e-014 1.95803e-014
rhumerus -428.19 51.9826 253.541
rradius 111.518
rwrist -33.6486
rhand 7.87677 8.77823
rfingers 7.12502
rthumb 33.1099 -18.1987
lclavicle -1.98785e-014 1.95803e-014
lhumerus -71.0855 -66.6146 112.429
lradius 109.929
lwrist 34.8882
lhand -2.49332 -12.7837
lfingers 7.12502
lthumb 23.2002 735.839
rfemur -188.982 -165.115 187.49
rtibia 28.6096
rfoot 12.8832 7.74817
rtoes -6.79402
lfemur 177.124 176.555 161.392
ltibia 20.9301
lfoot 8.62399 9.30927
ltoes -8.41735
704
root -0.148656 1.61606 10.3026 -2431.83 -3.36193 183.222
lowerback -0.0274555 1.16073 -5.19993
upperback 3.40971 1.47688 -4.17621
thorax 3.50984 0.514769 -1.36531
lowerneck -18.7035 -4.82748 -0.706475
upperneck 11.2179 -6.78724 3.614
head 6.61512 -2.8936 0.543447
rclavicle 7.15625e-015 5.1684e-015
rhumerus -428.192 51.9899 253.552
rradius 111.534
rwrist -33.5424
rhand 7.84557 8.82081
rfingers 7.12502
rthumb 33.0802 -18.1624
lclavicle 7.15625e-015 5.1684e-015
lhumerus -70.9223 -66.6457 112.277
lradius 109.906
lwrist 34.9707
lhand -2.41192 -12.8112
lfingers 7.12502
lthumb 23.2783 735.802
rfemur -188.799 -164.961 187.386
rtibia 28.5669
rfoot 12.9274 7.80824
rtoes -5.97261
lfemur 177.007 176.529 161.362
ltibia 21.0114
lfoot 8.61536 9.24842
ltoes -7.72793
705
root -0.147524 1.61466 10.3006 -2431.79 -3.37699 183.284
lowerback -0.0500065 1.13197 -5.24213
upperback 3.39716 1.44246 -4.16823
thorax 3.50897 0.497462 -1.33416
lowerneck -18.7338 -4.82751 -0.7094
upperneck 11.2384 -6.78661 3.60556
head 6.62648 -2.8935 0.540379
rclavicle -7.95139e-016 -3.46879e-014
rhumerus -428.229 52.0031 253.542
rradius 111.565
rwrist -33.5047
rhand 7.81547 8.81119
rfingers 7.12502
rthumb 33.0516 -18.1781
lclavicle -7.95139e-016 -3.46879e-014
lhumerus -70.7851 -66.6189 112.16
lradius 109.883
lwrist 35.0221
lhand -2.31179 -12.7853
lfingers 7.12502
lthumb 23.3743 735.815
rfemur -188.598 -164.752 187.298
rtibia 28.5212
rfoot 13.0301 7.91016
rtoes -5.15291
lfemur 176.89 176.447 161.359
ltibia 21.1072
lfoot 8.66517 9.1147
ltoes -7.04693
706
root -0.147493 1.61338 10.2983 -2431.74 -3.40817 183.348
lowerback -0.0758824 1.10477 -5.2959
upperback 3.38394 1.4105 -4.15845
thorax 3.509 0.480978 -1.29464
lowerneck -18.7524 -4.83302 -0.728304
upperneck 11.2508 -6.7898 3.60182
head 6.63408 -2.89591 0.541232
rclavicle 1.03368e-014 8.84592e-015
rhumerus -428.274 52.009 253.544
rradius 111.592
rwrist -33.4062
rhand 7.79646 8.85899
rfingers 7.12502
rthumb 33.0335 -18.1342
lclavicle 1.03368e-014 8.84592e-015
lhumerus -70.6711 -66.5815 112.071
lradius 109.855
lwrist 35.0414
lhand -2.21233 -12.8062
lfingers 7.12502
lthumb 23.4697 735.782
rfemur -188.403 -164.511 187.187
rtibia 28.476
rfoot 13.1368 8.02704
rtoes -4.55693
lfemur 176.776 176.414 161.331
ltibia 21.2023
lfoot 8.66463 9.03942
ltoes -6.31647
707
root -0.146722 1.61172 10.295 -2431.7 -3.42339 183.42
lowerback -0.109501 1.07799 -5.33291
upperback 3.38752 1.38021 -4.14794
thorax 3.53131 0.465075 -1.26361
lowerneck -18.8134 -4.84435 -0.766034
upperneck 11.2715 -6.7986 3.61317
head 6.65267 -2.89954 0.548276
rclavicle 2.38542e-015 5.56597e-015
rhumerus -428.284 52.017 253.566
rradius 111.616
rwrist -33.3458
rhand 7.77226 8.88746
rfingers 7.12502
rthumb 33.0105 -18.1105
lclavicle 2.38542e-015 5.56597e-015
lhumerus -70.4893 -66.598 111.928
lradius 109.838
lwrist 35.1019
lhand -2.13074 -12.7766
lfingers 7.12502
lthumb 23.548 735.802
rfemur -188.204 -164.248 187.09
rtibia 28.426
rfoot 13.2817 8.10207
rtoes -4.03667
lfemur 176.649 176.377 161.324
ltibia 21.3078
lfoot 8.70604 8.91755
ltoes -5.73294
